<?xml version="1.0" standalone="no"?>
<!DOCTYPE svg PUBLIC "-//W3C//DTD SVG 20010904//EN"
 "http://www.w3.org/TR/2001/REC-SVG-20010904/DTD/svg10.dtd">
<svg version="1.0" xmlns="http://www.w3.org/2000/svg"
 width="inherit" height="inherit" viewBox="0 0 512.000000 512.000000"
 preserveAspectRatio="xMidYMid meet">

<g transform="translate(0.000000,512.000000) scale(0.100000,-0.100000)"
fill="inherit" stroke="none">
<path d="M1083 5104 c-55 -20 -127 -84 -151 -137 -12 -23 -55 -208 -97 -412
-42 -203 -79 -378 -81 -387 -4 -12 -16 -18 -37 -18 -39 0 -106 -30 -130 -58
-48 -53 -46 25 -46 -2017 0 -2042 -2 -1964 46 -2017 10 -11 36 -29 58 -39 38
-18 117 -19 1915 -19 1798 0 1877 1 1915 19 22 10 48 28 58 39 48 53 46 -25
46 2017 0 2042 2 1964 -46 2017 -24 28 -91 58 -130 58 -21 0 -33 6 -37 18 -2
9 -39 184 -81 387 -42 204 -85 389 -97 412 -11 24 -40 60 -64 82 -87 76 29 71
-1568 70 -1236 0 -1437 -3 -1473 -15z m1090 -531 c-45 -219 -83 -401 -83 -405
0 -12 -1180 -10 -1180 2 0 30 143 700 155 728 8 17 29 41 47 52 32 19 52 20
589 20 l555 0 -83 -397z m1835 377 c18 -11 39 -35 47 -52 12 -28 155 -698 155
-728 0 -7 -331 -10 -985 -10 l-985 0 5 23 c3 12 39 184 80 382 41 198 77 370
80 383 l5 22 783 0 c763 0 783 -1 815 -20z m416 -966 c3 -9 6 -751 6 -1650 l0
-1634 -1461 -2 -1461 -3 -24 -28 c-29 -34 -30 -56 -3 -91 l20 -26 1462 -2
1462 -3 3 -175 c1 -96 0 -185 -3 -198 l-5 -22 -1860 0 -1860 0 -5 23 c-3 12
-4 101 -3 197 l3 175 268 5 c251 5 270 6 283 24 20 28 17 69 -5 97 -19 24 -19
24 -285 27 l-266 3 0 1634 c0 898 3 1640 6 1649 6 15 179 16 1864 16 1685 0
1858 -1 1864 -16z"/>
<path d="M1296 4619 c-34 -27 -36 -77 -3 -107 23 -21 30 -22 284 -22 144 0
269 3 278 6 26 10 45 63 34 93 -19 49 -26 50 -305 51 -249 0 -262 -1 -288 -21z"/>
<path d="M2743 4844 c-61 -22 -136 -94 -164 -156 -51 -114 -22 -256 68 -339
65 -59 114 -79 203 -79 97 0 158 27 223 99 103 115 103 276 1 391 -65 72 -111
93 -209 97 -54 2 -94 -2 -122 -13z m37 -231 c0 -65 3 -80 22 -100 23 -24 57
-30 88 -13 25 13 40 62 40 133 l0 60 21 -19 c87 -78 51 -221 -63 -252 -103
-28 -204 66 -184 172 7 35 49 96 67 96 5 0 9 -35 9 -77z"/>
<path d="M3563 4844 c-58 -21 -129 -87 -161 -148 -22 -43 -26 -64 -26 -131 0
-67 4 -88 26 -130 58 -110 146 -164 268 -165 97 0 158 27 223 100 131 146 85
372 -95 466 -46 24 -179 29 -235 8z m37 -234 c0 -69 3 -82 22 -100 24 -22 58
-26 88 -10 25 13 40 62 40 133 l0 60 25 -23 c56 -53 57 -150 1 -206 -105 -105
-279 -15 -252 130 7 35 49 96 67 96 5 0 9 -36 9 -80z"/>
<path d="M2388 3769 c-549 -68 -1012 -443 -1197 -971 -96 -275 -102 -598 -15
-885 222 -738 983 -1171 1732 -987 496 122 895 505 1041 999 78 267 73 598
-13 851 -151 444 -487 784 -916 928 -182 61 -447 88 -632 65z m420 -164 c165
-32 358 -115 502 -216 41 -29 118 -96 170 -148 187 -189 304 -412 356 -678 24
-119 24 -347 0 -466 -153 -782 -938 -1246 -1688 -997 -444 148 -772 526 -864
997 -39 196 -17 472 52 665 88 244 269 483 474 627 177 124 394 207 620 235
68 8 296 -3 378 -19z"/>
<path d="M2405 3383 c-453 -72 -812 -423 -890 -872 -101 -574 288 -1125 864
-1226 645 -113 1241 388 1241 1045 0 485 -323 902 -798 1031 -58 15 -115 21
-232 24 -85 2 -168 1 -185 -2z m408 -177 c234 -70 427 -225 547 -438 l32 -58
-79 0 c-91 0 -145 -20 -186 -69 -35 -42 -39 -72 -35 -252 3 -144 5 -158 32
-216 18 -40 48 -81 80 -112 51 -47 121 -91 148 -91 7 0 19 -4 27 -9 30 -19
-90 -193 -212 -307 -245 -228 -616 -297 -935 -174 -224 87 -421 278 -513 499
-95 227 -90 504 11 727 82 181 240 347 415 436 148 76 255 98 440 94 116 -3
155 -8 228 -30z m639 -681 c25 -85 17 -390 -10 -417 -4 -4 -25 -2 -47 5 -54
16 -130 91 -144 142 -12 44 -15 287 -4 299 4 4 50 5 102 4 l95 -3 8 -30z"/>
<path d="M2023 2749 c-69 -13 -132 -45 -145 -74 -15 -34 -1 -75 33 -94 23 -13
33 -12 97 8 88 29 124 24 239 -32 119 -57 194 -61 320 -18 106 36 161 39 236
10 49 -19 58 -19 83 -7 16 7 33 26 38 41 15 41 -9 77 -69 107 -43 21 -64 25
-150 25 -87 0 -109 -4 -172 -29 -93 -37 -151 -33 -249 18 -97 50 -171 63 -261
45z"/>
<path d="M1967 2433 c-90 -31 -119 -82 -76 -137 24 -30 58 -34 112 -11 67 28
135 20 232 -27 76 -36 99 -42 169 -46 72 -4 92 -1 171 27 106 37 140 38 223 9
58 -20 66 -21 90 -7 15 8 31 27 36 41 15 44 -6 75 -72 106 -50 24 -69 27 -152
26 -80 0 -105 -4 -157 -27 -94 -41 -150 -37 -259 15 -80 39 -95 42 -178 45
-65 2 -105 -2 -139 -14z"/>
<path d="M1970 2131 c-84 -30 -121 -87 -86 -133 24 -32 57 -37 116 -16 78 28
148 20 236 -26 117 -61 237 -67 351 -16 69 31 129 35 183 15 25 -10 61 -19 81
-22 30 -4 40 -1 58 22 28 37 27 71 -5 100 -70 65 -241 79 -354 31 -99 -43
-153 -40 -270 14 -82 38 -106 44 -175 47 -61 3 -93 -1 -135 -16z"/>
</g>
</svg>
