<svg xmlns="http://www.w3.org/2000/svg" viewBox="0 0 685.57 262"><defs><style>.cls-1{fill:#0367f8;}.cls-2{fill:#fff;stroke:#0367f8;stroke-miterlimit:10;stroke-width:2px;}</style></defs><title>Asset 2316</title><g id="Layer_2" data-name="Layer 2"><g id="Layer_1-2" data-name="Layer 1"><rect class="cls-1" x="522.98" y="1.26" width="65" height="260.18"/><path d="M476.15,66h-111V2.27h0A128.4,128.4,0,0,1,476.15,66Z"/><path class="cls-1" d="M685.57,1V66H485.63A137.12,137.12,0,0,0,408.48,1Z"/><path class="cls-1" d="M240.6,247.05c-.83.55-1.66,1.09-2.51,1.62l-1,.6c-.3.19-.61.37-.92.55l-1,.56c-.27.16-.55.31-.83.46q-.65.36-1.29.69c-1.3.69-2.62,1.33-4,1.94-.44.21-.89.41-1.34.6l-1.05.45c-.61.26-1.22.5-1.84.74l-1.06.41c-1.06.4-2.13.77-3.22,1.12-.82.27-1.64.52-2.48.77-.66.19-1.33.38-2,.55l-1.53.39-.27.06-1.46.34-1.17.24-1,.19a82,82,0,0,1-8.5,1.16c-.4,0-.81.07-1.22.09l-.4,0-1.6.08c-.59,0-1.18.05-1.78.06l-1.78,0A80.67,80.67,0,0,1,150.17,247c-2.16-1.45-4.24-3-6.24-4.66l-11.16-11.16L108.2,206.57,60.62,159l33.65-58.27L128,134.48l13.82,13.82,39.54,39.54,6,6Z"/><path class="cls-1" d="M391.34,3.71l-36.43,63.1-50.47,87.41-2.63,4.55-33.64,58.28-.3.51-5.8,10.05c-.32.45-.66.89-1,1.32-.66.86-1.34,1.71-2,2.54L258,232.72c-.66.74-1.32,1.48-2,2.21l-.81.84c-.24.26-.5.51-.75.77l-.8.79c-.22.23-.45.44-.68.66s-.71.68-1.07,1c-1.08,1-2.19,2-3.32,2.9q-.57.48-1.14.93l-.9.7c-.52.41-1.05.8-1.59,1.19-.3.23-.61.46-.92.67-.92.67-1.85,1.3-2.82,1.92-.72.47-1.45.93-2.19,1.39-.59.35-1.19.71-1.79,1s-.92.53-1.38.78l-.24.12-1.33.71-1.06.54-.89.43a83.93,83.93,0,0,1-7.91,3.32c-.38.13-.77.28-1.16.4l-.38.14-1.52.49-1.7.52-1.72.48A80.64,80.64,0,0,1,170.6,256l31.94-55.32,5.41-9.38,12.63-21.87,14.89-25.8,18.75-32.48,44.33-76.77,12.61-21.83a130.44,130.44,0,0,1,80.18-8.87Z"/><polygon class="cls-1" points="239.4 118.78 212.86 164.74 114.12 66 186.62 66 239.4 118.78"/><polygon class="cls-1" points="240.6 116.82 214.06 162.78 115.32 64.04 187.82 64.04 240.6 116.82"/><path class="cls-1" d="M262.77,134.35l-53,53a16.18,16.18,0,0,1-28.36.47L141.85,148.3,128,134.48a81.12,81.12,0,0,0,4.74,96.66,81.73,81.73,0,0,0,11.16,11.16c2,1.65,4.08,3.21,6.24,4.66a80.67,80.67,0,0,0,45.27,13.81l1.78,0c.6,0,1.19,0,1.78-.06l1.6-.08.4,0c.41,0,.82-.06,1.22-.09a82,82,0,0,0,8.5-1.16l1-.19,1.17-.24,1.46-.34.27-.06,1.53-.39c.67-.17,1.34-.36,2-.55.84-.25,1.66-.5,2.48-.77,1.09-.35,2.16-.72,3.22-1.12l1.06-.41c.62-.24,1.23-.48,1.84-.74l1.05-.45c.45-.19.9-.39,1.34-.6,1.34-.61,2.66-1.25,4-1.94q.65-.33,1.29-.69c.28-.15.56-.3.83-.46l1-.56c.31-.18.62-.36.92-.55l1-.6c.85-.53,1.68-1.07,2.51-1.62l1.35-.93c.89-.62,1.76-1.26,2.62-1.92.44-.33.88-.67,1.31-1a81.13,81.13,0,0,0,16.89-108.83Z"/><path class="cls-1" d="M489.93,95.41A130.1,130.1,0,0,0,311.16,12.58L298.55,34.41l-44.33,76.77-18.75,32.48a129.29,129.29,0,0,0,28,68.65c1.41,1.77,2.87,3.49,4.38,5.18l36.59-63.38a65.16,65.16,0,1,1,9.17,16.42l-5.88-5.88-34.05,59c.77.77,1.55,1.51,2.34,2.25A129.46,129.46,0,0,0,364.86,261h.94a130,130,0,0,0,32.82-4.41l.78-.22a130.18,130.18,0,0,0,90.53-161Z"/><polygon class="cls-1" points="280.75 52.16 219.44 52.16 164.47 1 225.78 1 280.75 52.16"/><polygon class="cls-2" points="170.6 98.5 141.85 148.3 133.07 163.5 114.31 196 108.2 206.57 76.78 261 1.73 261 39.25 196 58.02 163.5 60.62 158.99 94.27 100.72 95.55 98.5 170.6 98.5"/><polygon class="cls-2" points="226.89 1 189.36 66 114.31 66 151.84 1 226.89 1"/></g></g></svg>