<?xml version="1.0" standalone="no"?>
<!DOCTYPE svg PUBLIC "-//W3C//DTD SVG 20010904//EN"
 "http://www.w3.org/TR/2001/REC-SVG-20010904/DTD/svg10.dtd">
<svg version="1.0" xmlns="http://www.w3.org/2000/svg"
 width="inherit" height="inherit" viewBox="0 0 512.000000 512.000000"
 preserveAspectRatio="xMidYMid meet">

<g transform="translate(0.000000,512.000000) scale(0.100000,-0.100000)"
fill="inherit" stroke="none">
<path d="M775 5105 c-126 -23 -262 -78 -365 -148 -66 -45 -186 -163 -236 -234
-96 -133 -160 -312 -171 -480 -6 -89 -5 -92 20 -117 34 -34 88 -35 121 -3 19
19 24 38 29 105 30 393 326 689 719 719 67 5 86 10 105 29 32 32 31 87 -2 119
-21 22 -33 25 -87 24 -35 0 -94 -7 -133 -14z"/>
<path d="M4126 5097 c-34 -34 -35 -88 -3 -121 19 -19 38 -24 107 -29 391 -30
687 -327 717 -719 5 -67 10 -86 29 -105 33 -32 87 -31 121 3 25 25 26 29 20
113 -11 167 -76 352 -171 484 -51 72 -170 189 -239 236 -127 86 -306 147 -464
158 -89 6 -92 5 -117 -20z"/>
<path d="M812 4765 c-221 -48 -410 -239 -457 -461 -19 -88 -19 -128 0 -163 37
-73 155 -43 155 39 0 107 63 247 143 317 76 67 191 112 285 113 84 0 115 117
41 155 -34 18 -83 18 -167 0z"/>
<path d="M4145 4768 c-77 -41 -50 -158 37 -158 94 -1 209 -46 285 -113 80 -70
143 -210 143 -317 0 -82 118 -112 155 -39 19 35 19 75 0 163 -47 224 -237 414
-461 461 -82 17 -132 18 -159 3z"/>
<path d="M2415 4604 c-354 -35 -599 -101 -871 -234 -237 -117 -433 -258 -624
-450 -583 -588 -801 -1445 -573 -2255 125 -444 407 -867 772 -1158 270 -215
609 -377 941 -451 189 -41 282 -51 505 -51 380 1 670 68 1010 234 367 179 675
448 900 787 258 387 385 811 385 1282 0 195 -15 326 -55 506 -208 928 -983
1641 -1925 1771 -114 15 -387 27 -465 19z m311 -174 c687 -56 1308 -442 1667
-1036 101 -167 205 -430 247 -621 20 -93 50 -304 50 -354 l0 -29 -83 0 -84 0
-11 105 c-74 676 -473 1256 -1070 1555 -183 91 -352 146 -572 186 -144 27
-486 25 -640 -4 -210 -38 -364 -90 -550 -183 -598 -297 -998 -877 -1072 -1554
l-11 -105 -85 0 -84 0 7 88 c11 144 52 344 100 489 285 866 1080 1451 2001
1472 34 0 119 -4 190 -9z m-40 -340 c234 -19 432 -71 629 -164 162 -77 309
-172 403 -260 l32 -30 0 -315 c0 -298 -1 -317 -21 -358 -26 -53 -99 -119 -148
-133 -49 -14 -1993 -14 -2042 0 -49 14 -122 80 -148 133 -20 41 -21 60 -21
359 l0 316 48 42 c79 70 261 186 382 244 228 107 425 154 736 175 12 0 79 -4
150 -9z m-1473 -1142 c35 -109 130 -217 234 -266 l58 -27 1055 0 1055 0 67 34
c83 41 169 129 204 207 33 75 43 162 44 379 l1 180 25 -30 c14 -16 57 -77 95
-134 126 -187 216 -403 266 -640 24 -113 27 -148 27 -336 1 -226 -6 -285 -55
-473 -76 -291 -221 -549 -434 -770 -90 -94 -248 -232 -266 -232 -4 0 -9 82
-12 183 -5 218 -21 287 -102 452 -188 385 -602 615 -1018 567 -364 -43 -655
-246 -812 -567 -81 -165 -97 -234 -102 -452 -3 -101 -7 -183 -10 -183 -18 0
-139 104 -243 209 -275 277 -430 580 -502 981 -8 48 -13 151 -12 285 0 188 3
223 27 336 58 276 160 503 331 734 l51 69 6 -229 c5 -164 11 -244 22 -277z
m-608 -800 c54 -599 368 -1136 858 -1467 l77 -53 0 -94 c0 -52 -4 -94 -8 -94
-16 0 -172 99 -252 160 -491 374 -791 921 -846 1543 l-6 77 85 0 85 0 7 -72z
m4081 -5 c-62 -698 -437 -1307 -1028 -1666 -34 -20 -65 -37 -70 -37 -4 0 -8
42 -8 93 l0 93 72 50 c240 163 450 387 594 631 151 255 241 538 269 841 l7 72
85 0 85 0 -6 -77z m-2019 -274 c99 -13 228 -56 317 -106 90 -49 227 -179 287
-270 110 -168 139 -288 139 -571 l0 -199 -103 -46 c-489 -219 -996 -219 -1489
-2 l-108 48 0 199 c0 223 12 306 62 426 98 237 298 417 543 491 128 39 228 47
352 30z m-830 -1388 c119 -47 286 -93 428 -118 138 -23 452 -23 590 0 174 30
387 92 483 140 74 38 73 39 70 -64 l-3 -94 -97 -37 c-274 -107 -634 -157 -928
-129 -217 21 -458 80 -627 152 l-43 18 0 92 c0 69 3 90 13 86 6 -3 58 -23 114
-46z"/>
<path d="M2474 3654 c-99 -35 -166 -132 -167 -239 0 -80 25 -136 83 -188 101
-91 239 -91 340 0 58 52 83 108 83 188 -1 176 -174 298 -339 239z m121 -164
c30 -11 54 -60 47 -96 -6 -32 -47 -64 -82 -64 -35 0 -76 32 -82 64 -7 34 17
85 44 96 31 12 42 12 73 0z"/>
<path d="M1620 3415 l0 -85 255 0 255 0 0 85 0 85 -255 0 -255 0 0 -85z"/>
<path d="M2990 3415 l0 -85 255 0 255 0 0 85 0 85 -255 0 -255 0 0 -85z"/>
<path d="M2475 1699 c-35 -5 -94 -25 -140 -48 -175 -87 -285 -262 -285 -456 0
-194 110 -370 285 -456 196 -96 412 -65 570 82 108 102 165 231 165 374 0 136
-48 252 -147 357 -112 117 -280 172 -448 147z m140 -170 c112 -21 204 -89 252
-188 24 -49 28 -68 28 -146 0 -108 -20 -159 -89 -233 -133 -142 -359 -142
-492 0 -69 74 -89 125 -89 233 0 104 19 156 81 224 59 66 138 104 245 120 3 1
32 -4 64 -10z"/>
<path d="M869 4426 c-91 -24 -160 -98 -179 -193 -19 -89 9 -133 84 -133 38 0
76 36 76 72 0 49 50 98 99 98 34 0 71 39 71 75 0 47 -8 64 -41 80 -33 18 -49
18 -110 1z"/>
<path d="M4145 4428 c-32 -17 -45 -39 -45 -79 0 -29 6 -42 26 -58 15 -12 35
-21 45 -21 49 0 99 -49 99 -98 0 -11 9 -31 21 -46 38 -48 124 -28 144 34 11
33 -14 126 -45 169 -37 51 -91 87 -150 100 -57 13 -70 13 -95 -1z"/>
</g>
</svg>
