<?xml version="1.0" standalone="no"?>
<!DOCTYPE svg PUBLIC "-//W3C//DTD SVG 20010904//EN"
 "http://www.w3.org/TR/2001/REC-SVG-20010904/DTD/svg10.dtd">
<svg version="1.0" xmlns="http://www.w3.org/2000/svg"
 width="inherit" height="inherit" viewBox="0 0 512.000000 512.000000"
 preserveAspectRatio="xMidYMid meet">

<g transform="translate(0.000000,512.000000) scale(0.100000,-0.100000)"
fill="inherit" stroke="none">
<path d="M859 5101 l-24 -19 -5 -1553 -5 -1553 -65 3 c-211 6 -383 -136 -423
-351 -9 -54 -18 -69 -56 -108 -38 -38 -82 -116 -105 -183 -4 -13 -17 -17 -63
-17 -105 -1 -113 -18 -113 -253 0 -225 2 -229 102 -237 l63 -5 5 -190 c5 -171
8 -197 31 -255 63 -166 181 -280 358 -349 l66 -26 2210 -3 c1569 -2 2218 1
2236 9 15 5 31 22 38 35 16 35 16 4992 0 5027 -6 14 -22 30 -36 36 -17 8 -602
11 -2107 11 -2037 0 -2084 0 -2107 -19z m4091 -561 l0 -410 -1980 0 -1980 0 0
410 0 410 1980 0 1980 0 0 -410z m0 -2475 l0 -1895 -1322 0 -1322 0 26 28 c42
43 97 141 119 212 15 46 22 104 26 198 4 98 9 132 18 128 7 -2 59 -16 116 -30
377 -92 791 -35 1124 155 668 380 964 1155 718 1879 -150 444 -509 808 -950
964 -276 98 -565 118 -853 60 -569 -115 -1051 -577 -1195 -1144 -60 -235 -63
-481 -9 -747 l6 -32 -63 27 c-86 36 -218 38 -292 4 l-48 -22 -30 22 -29 22 0
1033 0 1033 1980 0 1980 0 0 -1895z m-1700 1540 c190 -42 351 -109 506 -213
479 -321 713 -916 582 -1477 -130 -559 -578 -977 -1144 -1070 -117 -19 -328
-19 -440 0 -130 23 -119 13 -116 105 2 53 8 80 15 80 7 0 46 -8 87 -17 91 -20
343 -23 440 -4 543 102 935 510 1021 1063 15 96 7 305 -16 408 -102 465 -444
826 -897 945 -190 50 -368 54 -569 14 -419 -83 -780 -404 -919 -817 -100 -299
-78 -655 56 -924 40 -79 40 -84 13 -98 -18 -10 -27 -5 -72 37 -29 27 -71 57
-94 67 -23 10 -43 26 -46 35 -3 9 -17 56 -31 106 -133 450 -17 966 294 1309
229 253 497 402 830 461 102 19 399 13 500 -10z m-67 -326 c199 -40 372 -129
515 -263 103 -98 160 -171 217 -279 76 -142 110 -256 125 -415 5 -55 7 -115 3
-135 l-6 -37 -57 0 c-54 0 -59 2 -121 56 -76 67 -132 94 -208 101 -76 7 -155
-23 -223 -86 -110 -99 -129 -98 -268 16 -123 102 -291 92 -400 -22 -59 -62
-114 -80 -163 -54 -11 7 -49 36 -84 65 -133 113 -299 109 -413 -11 -48 -51
-80 -65 -145 -65 l-55 0 0 83 c0 509 378 961 880 1052 116 21 285 18 403 -6z
m-762 -1194 c70 -65 142 -96 223 -96 84 0 141 25 217 95 86 80 134 80 222 0
73 -66 141 -95 221 -95 84 0 141 25 217 95 87 81 133 80 226 -4 73 -64 123
-88 201 -96 37 -4 62 -12 62 -19 0 -23 -48 -151 -80 -215 -125 -248 -342 -438
-608 -534 -190 -68 -470 -75 -649 -15 -27 9 -33 16 -33 40 0 18 -10 39 -25 54
-20 21 -34 25 -83 25 l-59 0 -22 60 c-50 137 -164 232 -316 263 l-69 13 -33
60 c-33 59 -85 185 -97 235 -6 26 -4 26 55 33 83 8 140 36 210 100 86 80 136
80 220 1z m-1570 -296 c20 -10 52 -35 70 -55 19 -20 42 -45 52 -55 25 -28 66
-23 141 16 54 28 79 35 124 35 71 0 128 -26 173 -75 80 -88 75 -85 129 -85 95
0 159 -42 185 -121 29 -88 90 -104 158 -43 90 82 202 100 297 48 49 -27 110
-94 110 -121 0 -11 -180 -13 -970 -13 -533 0 -970 3 -970 6 0 18 30 56 86 110
l64 60 0 65 c0 190 187 311 351 228z m1627 -716 l3 -83 -1156 0 -1155 0 0 85
0 85 1153 -2 1152 -3 3 -82z m-168 -395 c0 -160 -10 -220 -48 -295 -34 -66
-114 -140 -189 -176 l-68 -32 -685 0 -685 0 -66 31 c-115 55 -206 171 -229
294 -5 29 -10 115 -10 191 l0 139 990 0 990 0 0 -152z"/>
<path d="M1340 4781 c-79 -26 -152 -95 -170 -160 -46 -168 69 -324 237 -323
88 1 179 56 219 135 40 77 25 198 -33 268 -56 67 -177 105 -253 80z m110 -171
c28 -15 43 -67 27 -98 -29 -61 -98 -66 -140 -10 -49 65 37 148 113 108z"/>
<path d="M2000 4781 c-111 -36 -179 -128 -180 -242 0 -180 190 -295 355 -214
179 87 179 345 1 437 -43 22 -136 32 -176 19z m110 -171 c25 -13 41 -65 30
-94 -11 -29 -47 -56 -76 -56 -29 0 -70 34 -78 65 -7 27 15 80 36 88 22 9 68 7
88 -3z"/>
<path d="M2660 4781 c-118 -39 -187 -139 -178 -260 13 -183 217 -282 378 -183
155 96 142 339 -23 424 -44 22 -137 32 -177 19z m105 -167 c24 -10 46 -60 39
-89 -8 -31 -49 -65 -78 -65 -29 0 -65 27 -76 56 -11 28 3 73 27 92 18 13 61
16 88 6z"/>
<path d="M3632 4708 l3 -83 80 0 80 0 3 83 3 82 -86 0 -86 0 3 -82z"/>
<path d="M3962 4708 l3 -83 83 -3 82 -3 0 86 0 85 -85 0 -86 0 3 -82z"/>
<path d="M4292 4708 l3 -83 83 -3 82 -3 0 86 0 85 -85 0 -86 0 3 -82z"/>
<path d="M4622 4708 l3 -83 83 -3 82 -3 0 86 0 85 -85 0 -86 0 3 -82z"/>
<path d="M3632 4378 l3 -83 83 -3 82 -3 0 86 0 85 -85 0 -86 0 3 -82z"/>
<path d="M3962 4378 l3 -83 83 -3 82 -3 0 86 0 85 -85 0 -86 0 3 -82z"/>
<path d="M4292 4378 l3 -83 83 -3 82 -3 0 86 0 85 -85 0 -86 0 3 -82z"/>
<path d="M4622 4378 l3 -83 83 -3 82 -3 0 86 0 85 -85 0 -86 0 3 -82z"/>
</g>
</svg>
