<?xml version="1.0" standalone="no"?>
<!DOCTYPE svg PUBLIC "-//W3C//DTD SVG 20010904//EN"
 "http://www.w3.org/TR/2001/REC-SVG-20010904/DTD/svg10.dtd">
<svg version="1.0" xmlns="http://www.w3.org/2000/svg"
 width="800.000000pt" height="507.000000pt" viewBox="0 0 800.000000 507.000000"
 preserveAspectRatio="xMidYMid meet">

<g transform="translate(0.000000,507.000000) scale(0.100000,-0.100000)"
fill="#4aad43" stroke="none">
<path d="M3535 4168 c9 -66 49 -143 93 -176 18 -13 35 -23 37 -20 8 8 -13 106
-31 140 -18 36 -83 108 -97 108 -5 0 -6 -23 -2 -52z"/>
<path d="M4477 4151 c-50 -56 -82 -136 -75 -188 l4 -28 46 46 c51 53 81 125
76 185 l-3 38 -48 -53z"/>
<path d="M4024 3833 c-61 -64 -118 -162 -144 -251 -42 -139 -17 -359 66 -577
29 -80 132 -285 142 -285 4 0 17 18 29 39 12 21 49 72 82 113 54 69 101 113
301 278 41 34 90 83 108 108 41 58 72 157 72 232 0 57 -1 58 -65 128 -69 75
-153 142 -177 142 -17 0 -106 -91 -145 -150 -40 -60 -105 -190 -133 -268 -34
-94 -44 -90 -37 14 9 137 65 290 156 424 17 24 27 48 23 52 -12 12 -161 48
-199 48 -27 0 -42 -9 -79 -47z"/>
<path d="M2891 3487 c50 -49 120 -77 193 -77 l40 0 -30 31 c-51 54 -108 81
-182 86 l-67 5 46 -45z"/>
<path d="M5063 3520 c-39 -9 -112 -51 -137 -78 -18 -21 -18 -21 7 -27 62 -16
210 44 238 96 9 17 6 19 -33 18 -24 -1 -57 -4 -75 -9z"/>
<path d="M2981 2651 c-34 -12 -68 -34 -95 -61 l-41 -42 67 5 c74 5 131 32 182
86 l30 31 -45 0 c-24 -1 -68 -9 -98 -19z"/>
<path d="M4925 2659 c-20 -31 103 -98 196 -106 61 -6 61 -6 49 16 -31 59 -222
129 -245 90z"/>
<path d="M4471 2265 c-30 -19 -88 -49 -130 -66 -41 -17 -96 -49 -121 -70 -26
-22 -49 -39 -52 -39 -4 0 -8 10 -10 23 -2 18 -9 22 -35 21 -18 0 -80 -1 -137
-2 l-104 -2 -7 -29 c-12 -55 -29 -56 -59 -1 -31 57 -30 56 -80 65 -37 7 -38 7
-31 -16 5 -21 2 -20 -26 11 -26 27 -139 96 -139 84 0 -1 29 -40 63 -87 78
-103 113 -171 132 -262 21 -102 30 -256 16 -283 -14 -26 -68 -43 -218 -68 -62
-10 -113 -21 -113 -25 0 -4 47 -7 105 -8 58 -1 113 -5 121 -8 18 -7 11 -32
-23 -85 -13 -21 -21 -38 -19 -38 2 0 39 17 82 37 137 65 225 58 362 -30 34
-22 65 -37 68 -34 3 3 1 22 -5 43 -27 98 77 116 322 53 98 -25 145 -22 72 4
-269 97 -260 87 -260 292 0 137 1 142 32 207 40 84 74 134 153 223 59 66 105
125 98 125 -2 0 -27 -16 -57 -35z"/>
<path d="M615 1232 c-111 -38 -169 -117 -170 -227 0 -79 9 -107 47 -150 45
-52 108 -80 265 -120 76 -19 149 -43 162 -53 57 -42 49 -133 -14 -172 -43 -27
-134 -36 -192 -21 -51 14 -111 68 -119 107 l-5 29 -81 -3 -80 -4 6 -45 c20
-146 144 -226 356 -227 127 0 198 23 265 88 93 89 95 258 3 343 -33 31 -124
67 -249 98 -133 33 -151 40 -184 75 -23 24 -27 35 -22 65 3 20 12 44 19 52 37
45 161 57 235 24 40 -19 73 -61 73 -96 0 -12 15 -15 84 -15 l85 0 -6 38 c-8
54 -51 129 -94 163 -21 16 -63 38 -95 49 -74 26 -217 27 -289 2z"/>
<path d="M1298 1223 l-128 -4 0 -424 0 -425 80 0 80 0 0 285 c0 157 3 285 8
285 4 0 22 -57 41 -128 18 -70 52 -197 76 -282 l42 -155 86 -3 86 -3 11 38
c11 41 80 293 112 413 11 41 22 85 25 98 17 73 23 3 23 -257 l0 -291 80 0 80
0 0 428 0 427 -128 -3 -127 -3 -74 -302 c-41 -166 -77 -306 -81 -310 -4 -5
-42 134 -85 307 -42 174 -78 315 -79 314 0 -1 -58 -4 -128 -5z"/>
<path d="M2445 1222 l-100 -3 -124 -347 c-69 -191 -137 -382 -153 -425 l-28
-78 92 3 93 3 30 88 30 87 162 0 163 0 27 -90 28 -90 92 0 c51 0 93 2 93 3 0
2 -31 91 -69 198 -38 107 -101 286 -140 399 -100 285 -77 256 -196 252z m15
-205 c0 -7 22 -82 50 -167 27 -85 50 -156 50 -157 0 -2 -52 -3 -115 -3 -63 0
-115 1 -115 3 0 1 23 70 50 154 28 84 50 159 50 167 0 9 7 16 15 16 8 0 15 -6
15 -13z"/>
<path d="M2963 1223 l-73 -4 0 -424 0 -425 85 0 85 0 0 171 0 171 140 -4 c137
-3 140 -3 167 -31 28 -27 28 -30 31 -167 l4 -140 81 0 82 0 -5 169 c-5 162 -6
171 -29 195 -13 14 -32 28 -43 32 -27 8 -22 19 16 42 53 32 81 92 80 178 0 62
-4 78 -30 120 -62 101 -133 125 -358 122 -89 -1 -194 -4 -233 -5z m427 -172
c37 -36 46 -72 31 -122 -20 -68 -51 -79 -218 -79 l-143 0 0 115 0 115 151 0
151 0 28 -29z"/>
<path d="M3610 1155 l0 -75 130 0 130 0 0 -355 0 -355 90 0 90 0 0 355 0 355
125 0 125 0 0 75 0 75 -345 0 -345 0 0 -75z"/>
<path d="M4540 800 l0 -430 85 0 85 0 0 185 0 185 190 0 190 0 0 70 0 70 -190
0 -190 0 0 100 0 100 220 0 220 0 0 75 0 75 -305 0 -305 0 0 -430z"/>
<path d="M5465 1213 c-3 -10 -65 -182 -136 -383 -72 -201 -138 -386 -149 -412
l-19 -48 93 0 92 0 30 87 30 88 164 0 164 0 26 -85 26 -85 92 -3 c51 -1 92 0
92 4 0 4 -15 50 -34 103 -19 53 -78 220 -131 371 -53 151 -105 298 -115 325
l-18 50 -100 3 c-88 2 -100 1 -107 -15z m163 -350 c28 -92 50 -168 48 -170 -2
-2 -53 -2 -113 -1 l-109 3 53 168 c30 92 58 167 62 167 4 0 31 -75 59 -167z"/>
<path d="M6020 801 l0 -431 80 0 80 0 0 170 0 170 124 0 c205 0 216 -11 216
-215 l0 -125 86 0 86 0 -4 157 c-5 176 -15 211 -68 235 -29 12 -40 28 -20 28
5 0 25 14 44 30 67 59 84 186 38 276 -24 48 -53 74 -112 105 -43 23 -55 24
-297 27 l-253 4 0 -431z m496 248 c25 -26 29 -38 29 -84 0 -46 -4 -59 -28 -82
-27 -28 -28 -28 -182 -31 l-155 -3 0 115 0 116 153 0 153 0 30 -31z"/>
<path d="M6760 800 l0 -430 80 0 80 0 0 287 c0 171 4 283 9 278 8 -9 34 -101
122 -430 10 -38 22 -83 27 -100 l8 -30 87 -3 c48 -1 87 -1 87 2 0 17 154 563
161 571 5 5 9 -109 9 -283 l0 -292 80 0 80 0 0 430 0 430 -130 0 c-109 0 -130
-2 -130 -15 0 -14 -136 -574 -147 -605 -8 -22 -23 29 -99 343 l-67 277 -129 0
-128 0 0 -430z"/>
<path d="M7699 545 c-54 -29 -58 -108 -7 -150 38 -32 78 -32 117 1 26 21 31
33 31 67 -1 45 -13 67 -47 85 -29 16 -62 14 -94 -3z m104 -37 c54 -64 -43
-148 -103 -88 -11 11 -20 29 -20 41 0 69 77 99 123 47z"/>
<path d="M7717 513 c-4 -3 -7 -26 -7 -50 0 -32 4 -43 15 -43 8 0 15 8 15 18 1
16 1 16 14 0 7 -10 17 -18 22 -18 14 0 15 83 1 92 -15 10 -51 10 -60 1z m48
-33 c-3 -5 -10 -10 -16 -10 -5 0 -9 5 -9 10 0 6 7 10 16 10 8 0 12 -4 9 -10z"/>
</g>
</svg>
