<?xml version="1.0" standalone="no"?>
<!DOCTYPE svg PUBLIC "-//W3C//DTD SVG 20010904//EN"
 "http://www.w3.org/TR/2001/REC-SVG-20010904/DTD/svg10.dtd">
<svg version="1.0" xmlns="http://www.w3.org/2000/svg"
 width="inherit" height="inherit" viewBox="0 0 512.000000 512.000000"
 preserveAspectRatio="xMidYMid meet">

<g transform="translate(0.000000,512.000000) scale(0.100000,-0.100000)"
fill="inherit" stroke="none">
<path d="M685 4756 c-132 -42 -234 -130 -293 -253 l-37 -78 0 -1865 0 -1865
37 -78 c50 -103 122 -175 225 -225 l78 -37 1865 0 1865 0 78 37 c103 50 175
122 225 225 l37 78 0 1865 0 1865 -36 75 c-62 128 -149 206 -277 249 -61 21
-64 21 -1894 20 -1453 0 -1841 -3 -1873 -13z m3767 -118 c79 -37 142 -98 181
-177 l32 -66 0 -1835 0 -1835 -27 -57 c-37 -79 -98 -142 -177 -181 l-66 -32
-1835 0 -1835 0 -66 32 c-79 39 -140 102 -177 181 l-27 57 0 1835 0 1835 26
56 c47 100 130 172 232 205 34 10 377 12 1862 11 l1820 -2 57 -27z"/>
<path d="M775 4461 c-152 -70 -182 -265 -55 -373 164 -141 411 10 360 221 -14
60 -69 127 -124 152 -52 24 -130 24 -181 0z m139 -96 c41 -20 66 -63 66 -115
0 -34 -6 -48 -34 -76 -28 -28 -42 -34 -75 -34 -57 0 -95 22 -116 66 -29 61 -2
133 58 159 42 18 62 18 101 0z"/>
<path d="M4164 4461 c-115 -52 -163 -195 -104 -311 82 -160 326 -152 401 14
83 184 -113 380 -297 297z m140 -95 c123 -51 82 -226 -54 -226 -34 0 -48 6
-76 34 -28 28 -34 42 -34 75 0 55 21 94 62 114 41 20 59 21 102 3z"/>
<path d="M2413 4370 c-801 -65 -1473 -662 -1632 -1450 -165 -818 247 -1638
1004 -2001 618 -297 1374 -208 1910 224 828 667 911 1893 182 2664 -380 401
-916 607 -1464 563z m450 -124 c345 -65 646 -223 896 -468 254 -251 423 -568
486 -916 26 -141 31 -388 10 -534 -103 -729 -634 -1292 -1365 -1449 -90 -20
-135 -23 -325 -23 -192 -1 -234 2 -330 22 -816 171 -1385 862 -1385 1681 0
456 173 877 492 1199 268 270 596 438 968 496 124 20 429 15 553 -8z"/>
<path d="M2626 4065 c-76 -31 -146 -100 -183 -179 l-28 -61 0 -383 0 -382 -62
-30 c-74 -34 -65 -42 -111 100 -65 202 -110 417 -131 625 -19 187 -20 194 -36
219 -34 52 -111 61 -171 20 -122 -83 -278 -200 -304 -230 -55 -63 -73 -111
-78 -204 -3 -70 0 -95 18 -145 21 -55 44 -81 296 -335 l273 -275 -19 -35 c-11
-19 -19 -42 -20 -50 -1 -44 -15 -42 -131 15 -199 100 -402 236 -601 401 -47
40 -96 75 -108 79 -56 18 -132 -29 -145 -88 -24 -109 -56 -361 -52 -408 9
-107 85 -217 185 -268 67 -34 142 -39 499 -33 l342 5 29 -64 c16 -35 27 -67
25 -71 -5 -10 -204 -74 -320 -103 -139 -34 -303 -62 -477 -79 -152 -15 -174
-23 -200 -67 -34 -58 -24 -84 99 -256 63 -89 133 -175 155 -193 90 -72 223
-91 337 -49 53 20 83 46 333 294 l275 272 55 -23 c30 -13 59 -25 64 -27 15 -5
-132 -282 -224 -420 -49 -72 -136 -190 -194 -260 -57 -71 -108 -141 -111 -157
-8 -37 16 -94 49 -115 16 -11 101 -29 221 -48 172 -28 201 -30 250 -20 118 25
202 92 253 201 l27 57 3 386 3 386 57 24 c31 13 59 25 63 27 3 1 22 -46 42
-105 72 -218 117 -434 142 -687 16 -160 26 -187 76 -214 49 -26 91 -9 236 94
76 54 155 114 175 132 46 42 95 139 103 209 9 70 -16 165 -61 230 -20 29 -146
159 -280 289 -134 130 -244 241 -244 247 0 18 45 127 53 127 16 0 213 -104
314 -166 122 -74 273 -183 388 -279 96 -80 108 -87 151 -87 44 0 81 24 99 65
18 42 65 329 65 401 0 143 -97 271 -239 316 -58 18 -91 20 -430 20 l-366 0
-25 57 c-14 31 -26 60 -28 63 -4 10 194 74 338 110 140 34 319 63 489 80 63 6
122 15 132 20 51 28 74 102 47 153 -23 44 -207 293 -240 324 -18 18 -60 44
-93 60 -49 22 -73 27 -135 27 -135 -1 -148 -10 -456 -317 l-271 -269 -64 23
c-35 12 -65 24 -67 25 -2 1 24 58 58 125 101 201 217 377 378 572 46 56 89
113 94 127 14 37 1 83 -31 114 -27 25 -47 31 -203 57 -215 36 -274 36 -352 4z
m299 -101 c94 -15 174 -31 179 -35 5 -5 -14 -36 -43 -71 -182 -219 -312 -412
-417 -623 -66 -132 -87 -162 -116 -164 -5 -1 -8 166 -8 369 l0 371 25 49 c28
56 76 96 137 115 58 18 51 19 243 -11z m-930 -116 c29 -318 88 -601 171 -824
29 -76 33 -98 24 -109 -7 -8 -18 -15 -24 -15 -6 0 -123 111 -258 248 -269 269
-288 295 -288 392 0 67 25 124 71 167 37 34 280 212 290 213 4 0 10 -33 14
-72z m1640 -367 c22 -10 56 -36 76 -57 36 -39 209 -276 209 -286 0 -4 -33 -9
-72 -13 -318 -29 -601 -88 -824 -171 -76 -29 -98 -33 -109 -24 -8 7 -15 18
-15 24 0 6 111 123 248 258 177 177 260 253 292 267 57 26 141 27 195 2z
m-2302 -477 c182 -146 371 -270 550 -359 134 -67 164 -88 166 -117 1 -5 -166
-8 -369 -8 l-371 0 -49 25 c-60 30 -104 87 -120 154 -10 42 -8 73 15 218 28
179 31 193 40 193 4 0 66 -48 138 -106z m1403 -74 c87 -43 151 -107 195 -195
32 -66 34 -75 34 -175 0 -97 -2 -110 -32 -172 -41 -88 -113 -160 -201 -201
-62 -30 -75 -32 -172 -32 -97 0 -110 2 -172 32 -288 136 -322 535 -60 710 88
59 138 73 248 70 80 -2 99 -7 160 -37z m1123 -356 c61 -31 102 -81 121 -149
11 -40 9 -66 -15 -223 -15 -97 -31 -181 -36 -186 -5 -5 -35 13 -71 43 -212
178 -403 304 -628 419 -128 65 -157 85 -159 115 -1 4 165 7 367 7 l368 0 53
-26z m-655 -595 c272 -267 296 -300 296 -398 0 -69 -25 -124 -76 -172 -39 -36
-276 -209 -286 -209 -4 0 -9 33 -13 73 -29 319 -88 600 -174 831 -24 64 -28
82 -18 97 6 10 15 19 19 19 4 0 117 -108 252 -241z m-990 199 c9 -16 -24 -53
-234 -263 -175 -175 -259 -253 -294 -270 -89 -45 -201 -28 -268 40 -27 27
-218 288 -218 298 0 3 33 8 73 12 321 29 645 98 842 179 68 28 83 28 99 4z
m386 -498 l0 -371 -25 -49 c-30 -60 -87 -104 -154 -120 -42 -10 -73 -8 -222
16 -96 15 -178 31 -183 35 -5 5 14 36 43 71 181 218 318 423 422 633 61 123
82 152 112 154 4 1 7 -166 7 -369z"/>
<path d="M2455 2786 c-91 -43 -145 -126 -145 -226 0 -139 111 -250 250 -250
138 0 249 111 250 250 0 182 -191 304 -355 226z m171 -97 c78 -37 106 -141 56
-208 -67 -90 -177 -90 -244 0 -50 66 -22 170 55 208 53 26 80 26 133 0z"/>
<path d="M798 1079 c-20 -6 -55 -27 -78 -47 -158 -135 -63 -392 145 -392 193
0 293 234 161 378 -49 55 -151 82 -228 61z m148 -133 c28 -28 34 -42 34 -76 0
-114 -123 -169 -201 -91 -78 78 -24 200 90 201 36 0 49 -6 77 -34z"/>
<path d="M4200 1081 c-163 -50 -220 -235 -112 -361 136 -160 393 -62 392 148
-1 140 -149 252 -280 213z m119 -116 c65 -33 76 -131 22 -186 -78 -78 -201
-23 -201 91 0 34 6 48 34 76 28 28 42 34 75 34 23 0 55 -7 70 -15z"/>
</g>
</svg>
